<svg width="10" height="10" viewBox="0 0 10 10" fill="none" xmlns="http://www.w3.org/2000/svg">
<path fill-rule="evenodd" clip-rule="evenodd" d="M5 0C7.76098 0 10 2.23902 10 5C10 7.76098 7.76098 10 5 10C2.23902 10 0 7.76098 0 5C0 2.23902 2.23902 0 5 0ZM2.47283 6.8098L4.28264 5L2.47283 3.1902C2.36902 3.08634 2.36902 2.91693 2.47283 2.81311L2.81311 2.47283C2.91693 2.36902 3.08634 2.36902 3.1902 2.47283L5 4.28264L6.8098 2.47283C6.91366 2.36902 7.08307 2.36902 7.18689 2.47283L7.52717 2.81311C7.63098 2.91693 7.63098 3.08634 7.52717 3.1902L5.71736 5L7.52717 6.8098C7.63098 6.91366 7.63098 7.08307 7.52717 7.18689L7.18689 7.52717C7.08307 7.63098 6.91366 7.63098 6.8098 7.52717L5 5.71736L3.1902 7.52717C3.08634 7.63098 2.91693 7.63098 2.81311 7.52717L2.47283 7.18689C2.36902 7.08307 2.36902 6.91366 2.47283 6.8098Z" fill="#b60000"/>
</svg>
