<svg width="12" height="8" viewBox="0 0 12 8" fill="none" xmlns="http://www.w3.org/2000/svg">
<path d="M10.8903 3.15625C10.5028 2.67843 9.87217 1.985 9.06873 1.39437C8.03998 0.638434 7.00623 0.254997 5.99998 0.254997C4.99373 0.254997 3.95998 0.638434 2.93123 1.39437C2.12779 1.985 1.49717 2.67843 1.10967 3.15625C0.917359 3.39505 0.8125 3.69245 0.8125 3.99906C0.8125 4.30567 0.917359 4.60307 1.10967 4.84187C1.49717 5.31968 2.12779 6.01312 2.93123 6.60375C3.95998 7.35968 4.99373 7.74312 5.99998 7.74312C7.00623 7.74312 8.03998 7.35968 9.06873 6.60375C9.87217 6.01312 10.5028 5.31968 10.8903 4.84187C11.0826 4.60307 11.1875 4.30567 11.1875 3.99906C11.1875 3.69245 11.0826 3.39505 10.8903 3.15625ZM9.86311 4.00875C9.27498 4.73375 7.72123 6.42031 5.99998 6.42031C4.27873 6.42031 2.72498 4.73281 2.13686 4.00875C2.13457 4.00604 2.13331 4.00261 2.13331 3.99906C2.13331 3.99551 2.13457 3.99208 2.13686 3.98937C2.72498 3.26437 4.27873 1.57781 5.99998 1.57781C7.72123 1.57781 9.27498 3.26531 9.86311 3.98937C9.86565 3.99214 9.86707 3.99577 9.86707 3.99953C9.86707 4.00329 9.86565 4.00692 9.86311 4.00968V4.00875Z" fill="#000"/>
<path d="M6.00006 5.09907C6.60706 5.09907 7.09913 4.607 7.09913 4C7.09913 3.39301 6.60706 2.90094 6.00006 2.90094C5.39307 2.90094 4.901 3.39301 4.901 4C4.901 4.607 5.39307 5.09907 6.00006 5.09907Z" fill="#b60000"/>
</svg>
