<svg width="10" height="10" viewBox="0 0 10 10" fill="none" xmlns="http://www.w3.org/2000/svg">
<path d="M5 10C7.76142 10 10 7.76142 10 5C10 2.23858 7.76142 0 5 0C2.23858 0 0 2.23858 0 5C0 7.76142 2.23858 10 5 10Z" fill="#00e676"/>
<path fill-rule="evenodd" clip-rule="evenodd" d="M3.43883 7.43865L1.61017 5.48144C1.35981 5.21349 1.37418 4.78955 1.64213 4.5392C1.91009 4.28884 2.33402 4.30325 2.58438 4.57117L3.99493 6.08085L6.22765 3.99475C6.24772 3.97597 6.26871 3.95876 6.2904 3.94294L7.34036 2.96195C7.60832 2.7116 8.03229 2.72601 8.28261 2.99396C8.53296 3.26188 8.51855 3.68585 8.25064 3.93621L5.04379 6.93247L5.04036 6.9288L3.93107 7.96526L3.43883 7.43841V7.43865Z" fill="black"/>
</svg>
