<svg width="22" height="21" viewBox="0 0 22 21" fill="none" xmlns="http://www.w3.org/2000/svg">
<path d="M15.5517 7.21887H14.0345V5.05321C14.0345 2.26683 11.6523 0 8.72413 0C5.79597 0 3.41379 2.26683 3.41379 5.05321V7.21887H1.89655C0.850869 7.21887 0 8.02854 0 9.02359V10.1136C0 10.313 0.169665 10.4746 0.37931 10.4746C0.588955 10.4746 0.75862 10.313 0.75862 10.1136V9.02359C0.75862 8.42648 1.26906 7.94076 1.89655 7.94076H15.5517C16.1792 7.94076 16.6896 8.42648 16.6896 9.02359V10.4674C16.6896 10.6667 16.8593 10.8283 17.069 10.8283C17.2786 10.8283 17.4483 10.6667 17.4483 10.4674V9.02359C17.4483 8.02854 16.5974 7.21887 15.5517 7.21887ZM4.17241 5.05321C4.17241 2.66496 6.21416 0.721887 8.72413 0.721887C11.2341 0.721887 13.2759 2.66496 13.2759 5.05321V7.21887H11.7586V5.05321C11.7586 3.46105 10.3973 2.16566 8.72413 2.16566C7.05096 2.16566 5.68965 3.46105 5.68965 5.05321V7.21887H4.17241V5.05321ZM11 7.21887H6.44827V5.05321C6.44827 3.85899 7.46915 2.88755 8.72413 2.88755C9.97912 2.88755 11 3.85899 11 5.05321V7.21887Z" fill="#333"/>
<path d="M0.387233 12.3611C0.601256 12.3611 0.774465 12.1995 0.774465 12.0002V11.3356C0.774465 11.1362 0.601256 10.9746 0.387233 10.9746C0.173209 10.9746 0 11.1362 0 11.3356V12.0002C0 12.1995 0.173209 12.3611 0.387233 12.3611Z" fill="#333"/>
<path d="M17.069 18.7689C16.8593 18.7689 16.6896 18.9305 16.6896 19.1298C16.6896 19.7269 16.1792 20.2126 15.5517 20.2126H1.89655C1.26906 20.2126 0.75862 19.7269 0.75862 19.1298V13.3727C0.75862 13.1733 0.588955 13.0117 0.37931 13.0117C0.169665 13.0117 0 13.1733 0 13.3727V19.1298C0 20.1248 0.850869 20.9345 1.89655 20.9345H15.5517C16.5974 20.9345 17.4483 20.1248 17.4483 19.1298C17.4483 18.9305 17.2786 18.7689 17.069 18.7689Z" fill="#333"/>
<path d="M20.4828 11.5508H4.93106C4.09426 11.5508 3.41382 12.1985 3.41382 12.9946V16.604C3.41382 17.4001 4.09426 18.0478 4.93106 18.0478H12.5739C12.7836 18.0478 12.9532 17.8862 12.9532 17.6868C12.9532 17.4875 12.7836 17.3259 12.5739 17.3259H4.93106C4.51287 17.3259 4.17244 17.0021 4.17244 16.604V12.9946C4.17244 12.5964 4.51287 12.2727 4.93106 12.2727H20.4828C20.901 12.2727 21.2414 12.5964 21.2414 12.9946V16.604C21.2414 17.0021 20.901 17.3259 20.4828 17.3259H14.7183C14.5086 17.3259 14.339 17.4875 14.339 17.6868C14.339 17.8862 14.5086 18.0478 14.7183 18.0478H20.4828C21.3196 18.0478 22 17.4001 22 16.604V12.9946C22 12.1985 21.3196 11.5508 20.4828 11.5508Z" fill="#b60000"/>
<path d="M8.33106 14.0773C8.22587 13.9044 7.99362 13.8454 7.81284 13.9451L7.39647 14.1739V13.7164C7.39647 13.5171 7.22681 13.3555 7.01716 13.3555C6.80752 13.3555 6.63785 13.5171 6.63785 13.7164V14.1739L6.22148 13.9451C6.03998 13.8454 5.80811 13.9044 5.70327 14.0773C5.59843 14.2499 5.66067 14.4707 5.84217 14.5704L6.2585 14.7992L5.84217 15.028C5.66067 15.1277 5.59843 15.3486 5.70327 15.5211C5.77363 15.6369 5.90108 15.7016 6.03221 15.7016C6.09665 15.7016 6.16186 15.6861 6.22148 15.6533L6.63785 15.4245V15.882C6.63785 16.0813 6.80752 16.243 7.01716 16.243C7.22681 16.243 7.39647 16.0813 7.39647 15.882V15.4245L7.81284 15.6533C7.87247 15.6861 7.93767 15.7016 8.00212 15.7016C8.13325 15.7016 8.26066 15.6369 8.33106 15.5211C8.4359 15.3486 8.37365 15.1277 8.19215 15.028L7.77582 14.7992L8.19215 14.5704C8.37365 14.4707 8.4359 14.2499 8.33106 14.0773Z" fill="#b60000"/>
<path d="M12.1243 14.0773C12.0191 13.9044 11.7868 13.8454 11.6061 13.9451L11.1897 14.1739V13.7164C11.1897 13.5171 11.02 13.3555 10.8104 13.3555C10.6007 13.3555 10.4311 13.5171 10.4311 13.7164V14.1739L10.0147 13.9451C9.8332 13.8454 9.60132 13.9044 9.49648 14.0773C9.39164 14.2499 9.45388 14.4707 9.63539 14.5704L10.0517 14.7992L9.63539 15.028C9.45388 15.1277 9.39164 15.3486 9.49648 15.5211C9.56684 15.6369 9.69429 15.7016 9.82542 15.7016C9.88986 15.7016 9.95507 15.6861 10.0147 15.6533L10.4311 15.4245V15.882C10.4311 16.0813 10.6007 16.243 10.8104 16.243C11.02 16.243 11.1897 16.0813 11.1897 15.882V15.4245L11.6061 15.6533C11.6657 15.6861 11.7309 15.7016 11.7953 15.7016C11.9265 15.7016 12.0539 15.6369 12.1243 15.5211C12.2291 15.3486 12.1669 15.1277 11.9854 15.028L11.569 14.7992L11.9854 14.5704C12.1669 14.4707 12.2291 14.2499 12.1243 14.0773Z" fill="#b60000"/>
<path d="M14.9827 15.882V15.4245L15.399 15.6533C15.4587 15.6861 15.5239 15.7016 15.5883 15.7016C15.7194 15.7016 15.8468 15.6369 15.9172 15.5211C16.0221 15.3486 15.9598 15.1277 15.7783 15.028L15.362 14.7992L15.7783 14.5704C15.9598 14.4707 16.0221 14.2499 15.9172 14.0773C15.8124 13.9044 15.5798 13.8454 15.399 13.9451L14.9827 14.1739V13.7164C14.9827 13.5171 14.813 13.3555 14.6033 13.3555C14.3937 13.3555 14.224 13.5171 14.224 13.7164V14.1739L13.8077 13.9451C13.6262 13.8454 13.3943 13.9044 13.2895 14.0773C13.1846 14.2499 13.2469 14.4707 13.4284 14.5704L13.8447 14.7992L13.4284 15.028C13.2469 15.1277 13.1846 15.3486 13.2895 15.5211C13.3598 15.6369 13.4873 15.7016 13.6184 15.7016C13.6828 15.7016 13.748 15.6861 13.8077 15.6533L14.224 15.4245V15.882C14.224 16.0813 14.3937 16.243 14.6033 16.243C14.813 16.243 14.9827 16.0813 14.9827 15.882Z" fill="#b60000"/>
<path d="M17.0827 15.5211C17.153 15.6369 17.2805 15.7016 17.4116 15.7016C17.476 15.7016 17.5413 15.6861 17.6009 15.6533L18.0172 15.4245V15.882C18.0172 16.0813 18.1869 16.243 18.3966 16.243C18.6062 16.243 18.7759 16.0813 18.7759 15.882V15.4245L19.1922 15.6533C19.2519 15.6861 19.3171 15.7016 19.3815 15.7016C19.5126 15.7016 19.6401 15.6369 19.7105 15.5211C19.8153 15.3486 19.753 15.1277 19.5715 15.028L19.1552 14.7992L19.5715 14.5704C19.753 14.4707 19.8153 14.2499 19.7105 14.0773C19.6053 13.9044 19.373 13.8454 19.1922 13.9451L18.7759 14.1739V13.7164C18.7759 13.5171 18.6062 13.3555 18.3966 13.3555C18.1869 13.3555 18.0172 13.5171 18.0172 13.7164V14.1739L17.6009 13.9451C17.4194 13.8454 17.1875 13.9044 17.0827 14.0773C16.9778 14.2499 17.0401 14.4707 17.2216 14.5704L17.6379 14.7992L17.2216 15.028C17.0401 15.1277 16.9778 15.3486 17.0827 15.5211Z" fill="#b60000"/>
</svg>
