<svg id="Layer_1" fill="#000000" viewBox="0 0 512 512" xmlns="http://www.w3.org/2000/svg"><g id="Layer_2_00000167397193515203102850000012645691032018103475_"><g id="play"><path d="m99.6 512c-37.4 0-67.7-30.3-67.7-67.7 0 0 0 0 0-.1v-376.4c0-37.4 30.3-67.8 67.6-67.8 12.5 0 24.7 3.4 35.4 9.9l312.7 188.3c31.9 19.5 42 61.2 22.5 93.1-5.6 9.2-13.3 16.9-22.5 22.5l-312.8 188.3c-10.6 6.5-22.8 9.9-35.2 9.9zm0-479.2c-19.3 0-35 15.7-35 35v376.5c0 19.3 15.6 35 34.9 35 6.5 0 12.8-1.8 18.3-5.1l312.8-188.3c16.5-10.1 21.6-31.7 11.5-48.1-2.9-4.7-6.9-8.7-11.6-11.5l-312.7-188.4c-5.5-3.4-11.7-5.1-18.2-5.1z"/></g></g></svg>