<svg width="319" height="319" viewBox="0 0 319 319" fill="none" xmlns="http://www.w3.org/2000/svg">
<path d="M309 89.8462V229.308C309 251.315 291.152 269.154 269.133 269.154H219.3L179.433 309L139.567 269.154H49.8667C27.848 269.154 10 251.315 10 229.308V89.8462C10 67.8388 27.848 50 49.8667 50H269.133C291.152 50 309 67.8388 309 89.8462Z" fill="#F9F9F9"/>
<path d="M309 29.8824V129.294C308.968 140.262 300.033 149.145 289 149.176H219L189 179L159 149.176H129C117.967 149.145 109.032 140.262 109 129.294V29.8824C109.032 18.9145 117.967 10.0316 129 10H289C300.033 10.0316 308.968 18.9145 309 29.8824Z" fill="#0556BF"/>
<path d="M129.594 159.501H155.372L182.358 186.487C186.252 190.378 192.56 190.378 196.454 186.487L223.44 159.501H289.094C305.609 159.501 319 146.11 319 129.594V29.9064C319 13.3907 305.609 0 289.094 0H129.594C113.078 0 99.6875 13.3907 99.6875 29.9064V39.8752H49.8438C22.3299 39.9093 0.0340729 62.2053 0 89.7193V229.283C0.0340729 256.797 22.3299 279.093 49.8438 279.127H135.435L172.389 316.081C176.283 319.973 182.592 319.973 186.486 316.081L223.44 279.127H269.156C296.67 279.093 318.966 256.797 319 229.283V189.407C319 183.902 314.536 179.439 309.031 179.439C303.526 179.439 299.062 183.902 299.062 189.407V229.283C299.062 245.798 285.672 259.189 269.156 259.189H219.312C216.669 259.189 214.133 260.24 212.264 262.11L179.438 294.936L146.611 262.11C144.742 260.24 142.206 259.189 139.562 259.189H49.8438C33.3281 259.189 19.9375 245.798 19.9375 229.283V89.7193C19.9375 73.2036 33.3281 59.8128 49.8438 59.8128H99.6875V129.594C99.6875 146.11 113.078 159.501 129.594 159.501ZM119.625 29.9064C119.625 24.4012 124.089 19.9376 129.594 19.9376H289.094C294.599 19.9376 299.062 24.4012 299.062 29.9064V129.594C299.062 135.1 294.599 139.563 289.094 139.563H219.312C216.669 139.563 214.133 140.615 212.264 142.484L189.406 165.342L166.548 142.484C164.679 140.615 162.143 139.563 159.5 139.563H129.594C124.089 139.563 119.625 135.1 119.625 129.594V29.9064Z" fill="#1E4483"/>
<path d="M209 88.9995C211.647 88.9623 214.183 87.9765 216.1 86.2373C216.529 85.7862 216.93 85.3073 217.301 84.8097C217.679 84.2796 217.982 83.703 218.199 83.0938C218.504 82.5288 218.707 81.9173 218.8 81.2849C218.917 80.6873 218.983 80.0828 219 79.4759C218.985 78.232 218.712 77.002 218.199 75.8581C217.694 74.7025 216.983 73.6399 216.1 72.7145C215.145 71.8543 214.025 71.1753 212.799 70.715C210.365 69.7617 207.636 69.7617 205.202 70.715C202.687 71.5799 200.709 73.4632 199.801 75.8581C199.289 77.002 199.015 78.232 199.001 79.4759C198.974 82.0103 200.019 84.447 201.898 86.2396C203.781 88.03 206.339 89.0251 209 88.9995Z" fill="#F9F9F9"/>
<path d="M249 89C250.306 88.9861 251.598 88.726 252.799 88.2383C254.012 87.7575 255.128 87.0817 256.1 86.241C257.926 84.418 258.961 82.0051 259 79.4876C258.985 78.2452 258.712 77.0166 258.199 75.874C257.716 74.7082 257.003 73.6422 256.1 72.7342C253.673 70.5419 250.292 69.5874 247 70.1657C246.373 70.2702 245.768 70.4606 245.201 70.737C244.562 70.9436 243.956 71.2316 243.399 71.5916L241.9 72.7342C240.997 73.6422 240.284 74.7082 239.801 75.874C239.288 77.0166 239.015 78.2452 239 79.4876C239.039 82.0051 240.074 84.418 241.9 86.241C243.807 87.9944 246.349 88.9814 249 89Z" fill="#F9F9F9"/>
<path d="M165.201 88.236C166.388 88.7698 167.689 89.0298 169 88.9973C171.647 88.9602 174.184 87.976 176.1 86.2398C176.984 85.316 177.694 84.2553 178.2 83.1017C179.267 80.8015 179.267 78.1787 178.2 75.8784C177.716 74.7133 177.003 73.6479 176.1 72.7403C173.224 70.0432 168.925 69.254 165.201 70.7442C163.988 71.2246 162.872 71.9001 161.9 72.7403C158.033 76.4889 158.033 82.4913 161.9 86.2398C162.872 87.0801 163.988 87.7555 165.201 88.236Z" fill="#F9F9F9"/>
</svg>
