<svg xmlns="http://www.w3.org/2000/svg" width="16" height="17" viewBox="0 0 16 17" fill="none">
  <path d="M9.3524 11.9625L11.7302 9.69347H5.25068C4.5598 9.69347 4 9.15927 4 8.5C4 7.84073 4.5598 7.30653 5.25068 7.30653H11.7297L9.3519 5.0375C8.86364 4.57156 8.86364 3.81586 9.3519 3.34945C9.84016 2.88352 10.6321 2.88352 11.1209 3.34945L15.6338 7.65598C16.1221 8.12191 16.1221 8.87761 15.6338 9.34402L11.1209 13.6506C10.6326 14.1165 9.84066 14.1165 9.3519 13.6506C8.86364 13.1846 8.86364 12.4289 9.3519 11.9625H9.3524Z" fill="#b60000"/>
  <path d="M7 1.28788C7 0.576455 6.45979 0 5.7931 0H2.41379C1.0809 0 0 1.15342 0 2.57576V14.4242C0 15.8466 1.0809 17 2.41379 17H5.7931C6.45979 17 7 16.4235 7 15.7121C7 15.0007 6.45979 14.4242 5.7931 14.4242H3.01724C2.68414 14.4242 2.41379 14.1358 2.41379 13.7803V3.2197C2.41379 2.86424 2.68414 2.57576 3.01724 2.57576H5.7931C6.45979 2.57576 7 1.9993 7 1.28788Z" fill="#b60000"/>
</svg>